<svg width="20" height="20" viewBox="0 0 20 20" fill="none" xmlns="http://www.w3.org/2000/svg">
<path d="M8.61111 14.9993L7.81111 15.5993C8.00583 15.859 8.31444 16.008 8.63885 15.999C8.96327 15.99 9.26314 15.8241 9.44316 15.554L8.61111 14.9993ZM5.8 9.58453C5.46863 9.14271 4.84183 9.05316 4.4 9.38453C3.95817 9.7159 3.86863 10.3427 4.2 10.7845L5 10.1845L5.8 9.58453ZM16.6654 4.72072C16.9717 4.26119 16.8476 3.64032 16.388 3.33397C15.9285 3.02761 15.3076 3.15179 15.0013 3.61132L15.8333 4.16602L16.6654 4.72072ZM8.61111 14.9993L9.41111 14.3993L5.8 9.58453L5 10.1845L4.2 10.7845L7.81111 15.5993L8.61111 14.9993ZM15.8333 4.16602L15.0013 3.61132L7.77906 14.4446L8.61111 14.9993L9.44316 15.554L16.6654 4.72072L15.8333 4.16602Z" fill="#BB6F00"/>
</svg>
